# xmcd
#
# Track frame offsets:
#	150
#	16350
#	36492
#	61090
#	77035
#	102545
#	125302
#	146555
#	169775
#	204665
#	216935
#
# Disc length: 3124 seconds
#
# Revision: 1
# Processed by: cddbd v1.5.1PL0 Copyright (c) Steve Scherf et al.
# Submitted via: CDex 1.50Beta5
#
DISCID=9d0c320b
DTITLE=デイジー - 桃色
DYEAR=2000
DGENRE=Rock
TTITLE0=桃色
TTITLE1=可憐な君
TTITLE2=魅惑な風
TTITLE3=窓際 I
TTITLE4=甘い悲しみ
TTITLE5=薔薇と刺繍
TTITLE6=囲いの中
TTITLE7=エベレスト
TTITLE8=見知らぬ雨
TTITLE9=窓際 II
TTITLE10=恍惚の窓
EXTD=
EXTT0=
EXTT1=
EXTT2=
EXTT3=
EXTT4=
EXTT5=
EXTT6=
EXTT7=
EXTT8=
EXTT9=
EXTT10=
PLAYORDER=
